# xmcd CD database file
#
# Track frame offsets:
#	150
#	7805
#	11822
#	18985
#	25852
#	35535
#	36557
#	44827
#	64302
#	73020
#	82752
#	88505
#	93577
#	101847
#	110655
#	121872
#	132360
#	140835
#	149317
#	158332
#	168002
#	175030
#	183680
#	192182
#
# Disc length: 2654 seconds
#
# Revision: 1
# Processed by: cddbd v1.5.1PL0 Copyright (c) Steve Scherf et al.
# Submitted via: CDex 1.51
#
DISCID=480a5c18
DTITLE=The Flesh Eaters - No Questions Asked
DYEAR=1980
DGENRE=Punk Rock
TTITLE0=Sleeping Sickness
TTITLE1=Jesus Don't Come Through The Cotton
TTITLE2=Police Gun Jitters
TTITLE3=Dynamite Hemorrhage
TTITLE4=Ten Inch Razor
TTITLE5=Kiss On My Cheek
TTITLE6=Suicide Saddle
TTITLE7=Cry Baby Killer
TTITLE8=Dominoes
TTITLE9=Crazy Boy
TTITLE10=The Child Comes First
TTITLE11=Home Of The Brave
TTITLE12=Impossible Crime
TTITLE13=No Questions Asked
TTITLE14=Word Goes Flesh
TTITLE15=Pony Dress
TTITLE16=Version Nation
TTITLE17=Disintegration Nation
TTITLE18=Agony Shorthand
TTITLE19=Radio Dies Screaming
TTITLE20=Twisted Road
TTITLE21=Disintegration Nation (Demo)
TTITLE22=Agony Shorthand (Demo)
TTITLE23=Twisted Road (Demo)
EXTD=YEAR: 1980
EXTT0=
EXTT1=
EXTT2=
EXTT3=
EXTT4=
EXTT5=
EXTT6=
EXTT7=
EXTT8=
EXTT9=
EXTT10=
EXTT11=
EXTT12=
EXTT13=
EXTT14=
EXTT15=
EXTT16=
EXTT17=
EXTT18=
EXTT19=
EXTT20=
EXTT21=
EXTT22=
EXTT23=
PLAYORDER=
